<svg xmlns="http://www.w3.org/2000/svg" xmlns:xlink="http://www.w3.org/1999/xlink" id="Layer_1" x="0px" y="0px" viewBox="0 0 250.6 49.9" style="enable-background:new 0 0 250.6 49.9;" xml:space="preserve"><style type="text/css">	.st0{fill:#414042;}	.st1{fill:#00C0F3;}	.st2{fill:#FFFFFF;}</style><g>	<g>		<path class="st0" d="M80.2,26.8c0.9,1.1,1.3,2.4,1.3,3.9c0,2.1-0.7,3.7-2.1,5c-1.4,1.2-3.4,1.8-5.9,1.8H62.1V12.5h11   c2.5,0,4.4,0.6,5.8,1.7c1.4,1.2,2.1,2.7,2.1,4.7c0,1.5-0.4,2.7-1.1,3.7c-0.8,1-1.8,1.6-3,2C78.3,24.9,79.4,25.7,80.2,26.8z    M68,22.6h3.9c1,0,1.7-0.2,2.2-0.7c0.5-0.4,0.8-1.1,0.8-1.9c0-0.9-0.3-1.5-0.8-2c-0.5-0.4-1.3-0.7-2.2-0.7H68V22.6z M74.7,31.8   c0.5-0.5,0.8-1.1,0.8-2c0-0.9-0.3-1.6-0.9-2.1c-0.6-0.5-1.3-0.7-2.3-0.7H68v5.5h4.4C73.4,32.5,74.2,32.3,74.7,31.8z"></path>		<path class="st0" d="M102.5,12.5v4.8H96v20.2h-5.9V17.2h-6.5v-4.8H102.5z"></path>		<path class="st0" d="M109.5,36.6c-1.4-0.6-2.5-1.4-3.4-2.6s-1.3-2.5-1.3-4.1h6.3c0.1,0.9,0.4,1.6,0.9,2.1c0.5,0.5,1.2,0.7,2.1,0.7   c0.9,0,1.6-0.2,2.1-0.6c0.5-0.4,0.8-1,0.8-1.7c0-0.6-0.2-1.1-0.6-1.5c-0.4-0.4-0.9-0.7-1.5-1c-0.6-0.3-1.4-0.5-2.5-0.9   c-1.6-0.5-2.9-1-3.8-1.5c-1-0.5-1.9-1.2-2.6-2.2c-0.7-0.9-1.1-2.2-1.1-3.7c0-2.3,0.8-4,2.5-5.3c1.6-1.3,3.8-1.9,6.4-1.9   c2.7,0,4.8,0.6,6.5,1.9c1.6,1.3,2.5,3.1,2.6,5.4h-6.4c0-0.8-0.3-1.4-0.9-1.9c-0.5-0.5-1.2-0.7-2-0.7c-0.7,0-1.3,0.2-1.7,0.6   c-0.4,0.4-0.7,0.9-0.7,1.6c0,0.8,0.4,1.4,1.1,1.8c0.7,0.4,1.9,0.9,3.5,1.4c1.6,0.5,2.8,1,3.8,1.5c1,0.5,1.8,1.2,2.5,2.1   c0.7,0.9,1.1,2.1,1.1,3.6c0,1.4-0.4,2.6-1.1,3.8c-0.7,1.1-1.7,2-3.1,2.7c-1.3,0.7-2.9,1-4.8,1C112.5,37.4,110.9,37.1,109.5,36.6z"></path>		<path class="st0" d="M130.8,36.6c-1.4-0.6-2.5-1.4-3.4-2.6c-0.8-1.1-1.3-2.5-1.3-4.1h6.3c0.1,0.9,0.4,1.6,0.9,2.1   c0.5,0.5,1.2,0.7,2.1,0.7c0.9,0,1.6-0.2,2.1-0.6c0.5-0.4,0.8-1,0.8-1.7c0-0.6-0.2-1.1-0.6-1.5c-0.4-0.4-0.9-0.7-1.5-1   c-0.6-0.3-1.4-0.5-2.5-0.9c-1.6-0.5-2.9-1-3.8-1.5c-1-0.5-1.9-1.2-2.6-2.2c-0.7-0.9-1.1-2.2-1.1-3.7c0-2.3,0.8-4,2.5-5.3   c1.6-1.3,3.8-1.9,6.4-1.9c2.7,0,4.8,0.6,6.5,1.9c1.6,1.3,2.5,3.1,2.6,5.4h-6.4c0-0.8-0.3-1.4-0.9-1.9c-0.5-0.5-1.2-0.7-2-0.7   c-0.7,0-1.3,0.2-1.7,0.6c-0.4,0.4-0.7,0.9-0.7,1.6c0,0.8,0.4,1.4,1.1,1.8c0.7,0.4,1.9,0.9,3.5,1.4c1.6,0.5,2.8,1,3.8,1.5   c1,0.5,1.8,1.2,2.5,2.1c0.7,0.9,1.1,2.1,1.1,3.6c0,1.4-0.4,2.6-1.1,3.8c-0.7,1.1-1.7,2-3.1,2.7c-1.3,0.7-2.9,1-4.8,1   C133.8,37.4,132.2,37.1,130.8,36.6z"></path>		<path class="st0" d="M158.2,18.5c1.1-1.9,2.6-3.4,4.5-4.4c1.9-1.1,3.9-1.6,6.2-1.6c2.6,0,4.8,0.6,6.8,1.9c2,1.3,3.5,3.1,4.4,5.4   h-4.8c-0.6-1.3-1.5-2.2-2.6-2.9c-1.1-0.6-2.4-0.9-3.8-0.9c-1.6,0-3,0.4-4.3,1.1c-1.2,0.7-2.2,1.8-2.9,3.1   c-0.7,1.4-1.1,2.9-1.1,4.7c0,1.8,0.4,3.4,1.1,4.7c0.7,1.4,1.7,2.4,2.9,3.1c1.2,0.7,2.7,1.1,4.3,1.1c1.5,0,2.7-0.3,3.8-0.9   c1.1-0.6,2-1.6,2.6-2.9h4.8c-0.9,2.3-2.4,4.1-4.4,5.4c-2,1.3-4.3,1.9-6.8,1.9c-2.3,0-4.3-0.5-6.2-1.6c-1.9-1.1-3.4-2.5-4.5-4.4   c-1.1-1.9-1.6-4-1.6-6.4S157.1,20.4,158.2,18.5z"></path>		<path class="st0" d="M189.4,35.8c-1.9-1.1-3.4-2.5-4.5-4.5c-1.1-1.9-1.6-4.1-1.6-6.4s0.5-4.5,1.6-6.4c1.1-1.9,2.6-3.4,4.5-4.4   c1.9-1.1,3.9-1.6,6.2-1.6c2.3,0,4.3,0.5,6.2,1.6c1.9,1.1,3.4,2.5,4.5,4.4c1.1,1.9,1.6,4,1.6,6.4s-0.5,4.5-1.6,6.4   c-1.1,1.9-2.6,3.4-4.5,4.5c-1.9,1.1-4,1.6-6.2,1.6C193.4,37.4,191.3,36.9,189.4,35.8z M199.9,32.8c1.2-0.7,2.2-1.8,2.9-3.2   c0.7-1.4,1.1-3,1.1-4.8c0-1.8-0.4-3.4-1.1-4.7s-1.7-2.4-2.9-3.1c-1.2-0.7-2.7-1.1-4.3-1.1c-1.6,0-3,0.4-4.3,1.1   c-1.2,0.7-2.2,1.8-2.9,3.1c-0.7,1.4-1.1,2.9-1.1,4.7c0,1.8,0.4,3.4,1.1,4.8c0.7,1.4,1.7,2.4,2.9,3.2c1.2,0.7,2.7,1.1,4.3,1.1   C197.2,33.9,198.7,33.6,199.9,32.8z"></path>		<path class="st0" d="M224.8,37.4l-6-10.5h-3v10.5h-4V12.5h8.3c1.8,0,3.4,0.3,4.7,1s2.2,1.5,2.9,2.6c0.6,1.1,1,2.3,1,3.6   c0,1.6-0.5,3-1.4,4.3c-0.9,1.3-2.3,2.2-4.2,2.6l6.4,10.8H224.8z M215.8,23.8h4.4c1.5,0,2.6-0.4,3.3-1.1s1.1-1.7,1.1-3   c0-1.2-0.4-2.2-1.1-2.9c-0.7-0.7-1.9-1.1-3.4-1.1h-4.4V23.8z"></path>		<path class="st0" d="M249.7,23.1c-0.6,1.1-1.5,2-2.8,2.7c-1.3,0.7-2.9,1-4.9,1h-4.4v10.6h-4V12.5h8.3c1.8,0,3.4,0.3,4.7,1   s2.2,1.5,2.9,2.6c0.6,1.1,1,2.3,1,3.6C250.6,20.9,250.3,22,249.7,23.1z M245.4,22.6c0.7-0.7,1.1-1.6,1.1-2.9c0-2.6-1.5-4-4.5-4   h-4.4v7.9h4.4C243.6,23.6,244.7,23.2,245.4,22.6z"></path>	</g>	<g>		<g>			<path class="st1" d="M37,37.4c0,0.1,0,0.2,0,0.4c0,6.7-5.4,12.1-12.1,12.1H0V38.1h23.7c0.3,0.4,0.7,0.7,1.3,0.7    c0.8,0,1.5-0.7,1.5-1.5c0-0.8-0.7-1.5-1.5-1.5c-0.5,0-1,0.3-1.3,0.7H0V13.2h23.7c0.3,0.4,0.7,0.7,1.3,0.7c0.8,0,1.5-0.7,1.5-1.5    c0-0.8-0.7-1.5-1.5-1.5c-0.5,0-1,0.3-1.3,0.7H0V0h24.9C31.6,0,37,5.4,37,12.1c0,0.1,0,0.2,0,0.4c-0.2,6.5-5.5,11.7-12.1,11.7v0    H13.7c-0.3-0.4-0.7-0.7-1.3-0.7c-0.8,0-1.5,0.7-1.5,1.5s0.7,1.5,1.5,1.5c0.5,0,1-0.3,1.3-0.7h11.2C31.5,25.7,36.8,30.9,37,37.4z"></path>		</g>	</g></g></svg>