<svg xmlns="http://www.w3.org/2000/svg" xmlns:xlink="http://www.w3.org/1999/xlink" id="Layer_1" viewBox="0 0 98.28 98.28"><defs><linearGradient id="linear-gradient" x1="2258.294" y1="1284.641" x2="2279.924" y2="1228.551" gradientTransform="translate(-929.688 -2326.601) rotate(96.04) scale(1 -1)" gradientUnits="userSpaceOnUse"><stop offset="0" stop-color="#231f20" stop-opacity=".3"></stop><stop offset=".73" stop-color="#fff" stop-opacity="0"></stop></linearGradient><linearGradient id="linear-gradient1" x1="2213.224" y1="1222.02" x2="2264.164" y2="1222.02" gradientTransform="translate(-1183.881 -2173.483) rotate(90.17) scale(1 -1)" gradientUnits="userSpaceOnUse"><stop offset="0" stop-color="#231f20" stop-opacity=".3"></stop><stop offset=".73" stop-color="#fff" stop-opacity="0"></stop></linearGradient></defs><g><circle cx="49.14" cy="49.14" r="49.14" fill="#472f92"></circle><g><path d="M60.3,18.61c.01,6.93,4.43,11.34,11.36,11.33-6.93.01-11.34,4.43-11.33,11.36-.01-6.93-4.43-11.34-11.36-11.33,6.93-.01,11.34-4.43,11.33-11.36Z" fill="#fff"></path><path d="M46.35,10.64c0,3.85,2.46,6.3,6.31,6.29-3.85,0-6.3,2.46-6.29,6.31,0-3.85-2.46-6.3-6.31-6.29,3.85,0,6.3-2.46,6.29-6.31Z" fill="#fff"></path><path d="M37.88,26.77c0,3.85,2.46,6.3,6.31,6.29-3.85,0-6.3,2.46-6.29,6.31,0-3.85-2.46-6.3-6.31-6.29,3.85,0,6.3-2.46,6.29-6.31Z" fill="#fff"></path></g><g><ellipse cx="74.62" cy="64.225" rx="25.79" ry="16.2" transform="translate(-16.152 102.347) rotate(-63.5)" fill="#fff"></ellipse><ellipse cx="74.502" cy="63.927" rx="22.77" ry="14.32" transform="translate(-16.9 99.744) rotate(-62.03)" fill="url(#linear-gradient)"></ellipse><ellipse cx="34.406" cy="70.793" rx="19.48" ry="30.97" transform="translate(-43.555 59.947) rotate(-56.16)" fill="#fff"></ellipse><ellipse cx="55.357" cy="70.469" rx="32.74" ry="24.02" transform="translate(-14.824 14.747) rotate(-13.4)" fill="#fff"></ellipse><g><path d="M72.97,67.06c2.79,5.45.8,9.14-2.23,10.35-3.03,1.21-7.53.6-8.74-5.97-.88-4.77-.8-9.14,2.23-10.35s6.52,1.65,8.74,5.97Z" fill="#231f20"></path><circle cx="54.99" cy="70.35" r="2.08" fill="#231f20"></circle><ellipse cx="75.586" cy="65.502" rx="1.32" ry="1.62" transform="translate(-11.249 15.868) rotate(-11.16)" fill="#231f20"></ellipse></g><ellipse cx="31.491" cy="68.827" rx="16.02" ry="25.47" transform="translate(-43.213 56.656) rotate(-56.16)" fill="url(#linear-gradient1)"></ellipse></g></g><g><g><path d="M143.16,41.8l-10.15-13.33v13.33h-7.35V11.61h7.35v13.24l10.06-13.24h8.64l-11.7,14.79,12.13,15.39h-8.99l.01.01Z" fill="#fff"></path><path d="M158.49,40.64c-1.88-1-3.35-2.44-4.43-4.3-1.07-1.86-1.61-4.04-1.61-6.54s.54-4.64,1.63-6.51c1.09-1.88,2.58-3.32,4.47-4.32s4.01-1.5,6.36-1.5,4.47.5,6.36,1.5,3.38,2.44,4.47,4.32,1.63,4.05,1.63,6.51-.55,4.64-1.66,6.51c-1.1,1.88-2.61,3.32-4.51,4.32-1.91,1-4.04,1.51-6.39,1.51s-4.47-.5-6.34-1.51l.02.01ZM168.42,34.23c.99-1.03,1.48-2.51,1.48-4.43s-.48-3.4-1.44-4.43-2.14-1.55-3.55-1.55-2.62.51-3.57,1.53-1.42,2.5-1.42,4.45.47,3.4,1.4,4.43,2.1,1.55,3.5,1.55,2.6-.52,3.59-1.55h.01Z" fill="#fff"></path><path d="M179.51,23.27c.93-1.86,2.2-3.3,3.81-4.3s3.4-1.5,5.38-1.5c1.69,0,3.17.34,4.45,1.03s2.26,1.59,2.95,2.71v-3.4h7.35v23.99h-7.35v-3.4c-.72,1.12-1.71,2.02-2.99,2.71s-2.76,1.03-4.45,1.03c-1.95,0-3.73-.51-5.33-1.53-1.61-1.02-2.87-2.46-3.81-4.34-.93-1.88-1.4-4.05-1.4-6.51s.47-4.63,1.4-6.49h-.01ZM194.56,25.46c-1.02-1.06-2.26-1.59-3.72-1.59s-2.7.52-3.72,1.57-1.53,2.49-1.53,4.32.51,3.29,1.53,4.37c1.02,1.07,2.26,1.61,3.72,1.61s2.7-.53,3.72-1.59,1.53-2.51,1.53-4.34-.51-3.28-1.53-4.34v-.01Z" fill="#fff"></path><path d="M214.41,9.98v31.82h-7.35V9.98h7.35Z" fill="#fff"></path><path d="M217.95,23.27c.93-1.86,2.2-3.3,3.81-4.3s3.4-1.5,5.38-1.5c1.69,0,3.17.34,4.45,1.03s2.26,1.59,2.95,2.71v-3.4h7.35v23.99h-7.35v-3.4c-.72,1.12-1.71,2.02-2.99,2.71s-2.76,1.03-4.45,1.03c-1.95,0-3.73-.51-5.33-1.53-1.61-1.02-2.87-2.46-3.81-4.34-.93-1.88-1.4-4.05-1.4-6.51s.47-4.63,1.4-6.49h-.01ZM233,25.46c-1.02-1.06-2.26-1.59-3.72-1.59s-2.7.52-3.72,1.57-1.53,2.49-1.53,4.32.51,3.29,1.53,4.37c1.02,1.07,2.26,1.61,3.72,1.61s2.7-.53,3.72-1.59,1.53-2.51,1.53-4.34-.51-3.28-1.53-4.34v-.01Z" fill="#fff"></path></g><g><path d="M144.12,56.26c2.39,1.22,4.23,2.96,5.5,5.22s1.91,4.93,1.91,8-.64,5.73-1.91,7.98c-1.28,2.25-3.11,3.97-5.5,5.16-2.39,1.19-5.22,1.79-8.49,1.79h-9.33v-29.97h9.33c3.27,0,6.1.61,8.49,1.83v-.01ZM144.49,78.1c2.04-2.05,3.05-4.92,3.05-8.62s-1.03-6.64-3.07-8.73c-2.05-2.09-5-3.14-8.84-3.14h-5.42v23.56h5.42c3.87,0,6.82-1.02,8.86-3.07Z" fill="#fff"></path><path d="M154.98,66.19c.97-1.82,2.31-3.23,4.02-4.24,1.71-1,3.6-1.5,5.7-1.5s3.86.44,5.38,1.33,2.65,2.01,3.4,3.35v-4.3h3.96v23.56h-3.96v-4.39c-.77,1.38-1.93,2.52-3.46,3.42-1.53.9-3.32,1.35-5.35,1.35s-3.98-.52-5.68-1.55c-1.69-1.03-3.02-2.48-4-4.34-.98-1.86-1.46-3.98-1.46-6.36s.49-4.52,1.46-6.34l-.01.01ZM172.4,67.93c-.72-1.32-1.68-2.33-2.9-3.03s-2.56-1.05-4.02-1.05-2.8.34-4,1.03-2.17,1.69-2.88,3.01c-.72,1.32-1.07,2.87-1.07,4.64s.36,3.38,1.07,4.71c.72,1.33,1.68,2.35,2.88,3.05,1.2.7,2.54,1.05,4,1.05s2.8-.35,4.02-1.05c1.22-.7,2.19-1.72,2.9-3.05.72-1.33,1.07-2.89,1.07-4.67s-.36-3.33-1.07-4.64Z" fill="#fff"></path><path d="M187.1,64.06v13.89c0,1.15.24,1.96.73,2.43.49.47,1.33.71,2.54.71h2.88v3.31h-3.53c-2.18,0-3.81-.5-4.9-1.5s-1.63-2.65-1.63-4.95v-13.89h-3.05v-3.23h3.05v-5.93h3.91v5.93h6.15v3.23h-6.15Z" fill="#fff"></path><path d="M196.26,66.19c.97-1.82,2.31-3.23,4.02-4.24,1.71-1,3.6-1.5,5.7-1.5s3.86.44,5.38,1.33,2.65,2.01,3.4,3.35v-4.3h3.96v23.56h-3.96v-4.39c-.77,1.38-1.93,2.52-3.46,3.42s-3.32,1.35-5.35,1.35-3.98-.52-5.68-1.55-3.02-2.48-4-4.34-1.46-3.98-1.46-6.36.49-4.52,1.46-6.34l-.01.01ZM213.68,67.93c-.72-1.32-1.68-2.33-2.9-3.03s-2.56-1.05-4.02-1.05-2.79.34-4,1.03c-1.2.69-2.17,1.69-2.88,3.01-.72,1.32-1.08,2.87-1.08,4.64s.36,3.38,1.08,4.71,1.68,2.35,2.88,3.05,2.54,1.05,4,1.05,2.8-.35,4.02-1.05c1.22-.7,2.19-1.72,2.9-3.05s1.08-2.89,1.08-4.67-.36-3.33-1.08-4.64Z" fill="#fff"></path><path d="M237.28,57.61v10.02h10.92v3.23h-10.92v10.32h12.21v3.23h-16.12v-30.01h16.12v3.23h-12.21v-.02Z" fill="#fff"></path><path d="M266.01,84.4l-5.59-8.77-5.38,8.77h-4.08l7.61-11.7-7.61-11.87h4.43l5.59,8.73,5.33-8.73h4.08l-7.57,11.65,7.61,11.91h-4.43l.01.01Z" fill="#fff"></path><path d="M279.96,61.8c1.53-.9,3.32-1.35,5.35-1.35s3.99.5,5.7,1.5c1.71,1,3.05,2.42,4.02,4.24s1.46,3.93,1.46,6.34-.49,4.5-1.46,6.36-2.32,3.31-4.02,4.34-3.61,1.55-5.7,1.55-3.78-.45-5.31-1.35-2.7-2.03-3.5-3.38v15.52h-3.91v-34.74h3.91v4.34c.77-1.35,1.93-2.47,3.46-3.38v.01ZM291.42,67.89c-.72-1.32-1.68-2.32-2.9-3.01s-2.56-1.03-4.02-1.03-2.76.35-3.98,1.05c-1.22.7-2.19,1.72-2.92,3.05s-1.1,2.87-1.1,4.62.37,3.33,1.1,4.67c.73,1.33,1.71,2.35,2.92,3.05,1.22.7,2.54,1.05,3.98,1.05s2.8-.35,4.02-1.05,2.19-1.72,2.9-3.05,1.08-2.9,1.08-4.71-.36-3.33-1.08-4.64Z" fill="#fff"></path><path d="M303.85,52.58v31.82h-3.91v-31.82h3.91Z" fill="#fff"></path><path d="M313.07,83.28c-1.79-1-3.2-2.43-4.21-4.28-1.02-1.85-1.53-3.99-1.53-6.43s.52-4.54,1.57-6.39c1.05-1.85,2.47-3.27,4.28-4.26,1.81-.99,3.83-1.48,6.06-1.48s4.26.49,6.06,1.48c1.81.99,3.23,2.4,4.28,4.24,1.05,1.83,1.57,3.97,1.57,6.41s-.54,4.58-1.61,6.43c-1.08,1.85-2.53,3.28-4.36,4.28s-3.87,1.5-6.11,1.5-4.21-.5-6-1.5h0ZM323.02,80.36c1.23-.66,2.23-1.65,2.99-2.97s1.14-2.92,1.14-4.82-.37-3.5-1.12-4.82-1.72-2.3-2.92-2.95c-1.2-.64-2.51-.97-3.91-.97s-2.75.32-3.93.97c-1.19.65-2.14,1.63-2.86,2.95-.72,1.32-1.08,2.92-1.08,4.82s.35,3.54,1.05,4.86c.7,1.32,1.64,2.3,2.82,2.95,1.18.64,2.47.97,3.87.97s2.72-.33,3.96-.99h-.01Z" fill="#fff"></path><path d="M341.45,61.53c1.27-.75,2.83-1.12,4.67-1.12v4.04h-1.03c-4.39,0-6.58,2.38-6.58,7.14v12.81h-3.91v-23.56h3.91v3.83c.69-1.35,1.67-2.39,2.95-3.14h-.01Z" fill="#fff"></path><path d="M370.28,74.08h-18.83c.14,2.32.94,4.14,2.39,5.44s3.2,1.96,5.27,1.96c1.69,0,3.1-.39,4.24-1.18,1.13-.79,1.93-1.84,2.39-3.16h4.21c-.63,2.27-1.89,4.11-3.78,5.53-1.89,1.42-4.24,2.13-7.05,2.13-2.24,0-4.24-.5-6-1.5s-3.15-2.43-4.15-4.28-1.5-3.99-1.5-6.43.49-4.57,1.46-6.41c.97-1.83,2.34-3.25,4.11-4.24,1.76-.99,3.79-1.48,6.08-1.48s4.21.49,5.93,1.46,3.05,2.32,3.98,4.02c.93,1.71,1.4,3.63,1.4,5.78,0,.75-.04,1.53-.13,2.37l-.02-.01ZM365.38,67.05c-.66-1.08-1.56-1.89-2.69-2.45s-2.39-.84-3.76-.84c-1.98,0-3.66.63-5.05,1.89s-2.19,3.01-2.39,5.25h14.88c0-1.49-.33-2.77-.99-3.85Z" fill="#fff"></path><path d="M380.71,61.53c1.27-.75,2.83-1.12,4.67-1.12v4.04h-1.03c-4.39,0-6.58,2.38-6.58,7.14v12.81h-3.91v-23.56h3.91v3.83c.69-1.35,1.67-2.39,2.95-3.14h-.01Z" fill="#fff"></path></g></g></svg>