<?xml version="1.0" encoding="UTF-8"?>
<svg id="Layer_1" data-name="Layer 1" xmlns="http://www.w3.org/2000/svg" xmlns:xlink="http://www.w3.org/1999/xlink" viewBox="0 0 439.6 153.25">
  <defs>
    <style>
      .cls-1 {
        fill: url(#linear-gradient);
      }

      .cls-1, .cls-2, .cls-3, .cls-4, .cls-5 {
        stroke-width: 0px;
      }

      .cls-2 {
        fill: url(#linear-gradient-2);
      }

      .cls-3 {
        fill: #472f92;
      }

      .cls-4 {
        fill: #231f20;
      }

      .cls-5 {
        fill: #fff;
      }
    </style>
    <linearGradient id="linear-gradient" x1="2081.56" y1="-898.67" x2="2103.19" y2="-842.58" gradientTransform="translate(-537.34 -2082.75) rotate(96.04)" gradientUnits="userSpaceOnUse">
      <stop offset="0" stop-color="#231f20" stop-opacity=".3"/>
      <stop offset=".73" stop-color="#fff" stop-opacity="0"/>
    </linearGradient>
    <linearGradient id="linear-gradient-2" x1="2036.45" y1="-836.13" x2="2087.4" y2="-836.13" gradientTransform="translate(-771.32 -1968.12) rotate(90.17)" xlink:href="#linear-gradient"/>
  </defs>
  <g>
    <circle class="cls-3" cx="76.26" cy="76.63" r="49.14"/>
    <g>
      <path class="cls-5" d="M87.42,46.1c.01,6.93,4.43,11.34,11.36,11.33-6.93.01-11.34,4.43-11.33,11.36-.01-6.93-4.43-11.34-11.36-11.33,6.93-.01,11.34-4.43,11.33-11.36Z"/>
      <path class="cls-5" d="M73.47,38.13c0,3.85,2.46,6.3,6.31,6.29-3.85,0-6.3,2.46-6.29,6.31,0-3.85-2.46-6.3-6.31-6.29,3.85,0,6.3-2.46,6.29-6.31Z"/>
      <path class="cls-5" d="M65,54.26c0,3.85,2.46,6.3,6.31,6.29-3.85,0-6.3,2.46-6.29,6.31,0-3.85-2.46-6.3-6.31-6.29,3.85,0,6.3-2.46,6.29-6.31Z"/>
    </g>
    <g>
      <ellipse class="cls-5" cx="101.74" cy="91.72" rx="25.79" ry="16.2" transform="translate(-25.74 141.84) rotate(-63.5)"/>
      <ellipse class="cls-1" cx="101.62" cy="91.42" rx="22.77" ry="14.32" transform="translate(-26.78 138.29) rotate(-62.03)"/>
      <ellipse class="cls-5" cx="61.53" cy="98.28" rx="19.48" ry="30.97" transform="translate(-54.37 94.66) rotate(-56.16)"/>
      <ellipse class="cls-5" cx="82.48" cy="97.96" rx="32.74" ry="24.02" transform="translate(-20.46 21.78) rotate(-13.4)"/>
      <g>
        <path class="cls-4" d="M100.09,94.55c2.79,5.45.8,9.14-2.23,10.35-3.03,1.21-7.53.6-8.74-5.97-.88-4.77-.8-9.14,2.23-10.35s6.52,1.65,8.74,5.97Z"/>
        <circle class="cls-4" cx="82.11" cy="97.84" r="2.08"/>
        <ellipse class="cls-4" cx="102.71" cy="92.99" rx="1.32" ry="1.62" transform="translate(-16.06 21.64) rotate(-11.16)"/>
      </g>
      <ellipse class="cls-2" cx="58.61" cy="96.32" rx="16.02" ry="25.47" transform="translate(-54.03 91.36) rotate(-56.16)"/>
    </g>
  </g>
  <g>
    <g>
      <path class="cls-4" d="M170.28,69.29l-10.15-13.33v13.33h-7.35v-30.19h7.35v13.24l10.06-13.24h8.64l-11.7,14.79,12.13,15.39h-8.99Z"/>
      <path class="cls-4" d="M185.61,68.13c-1.88-1-3.35-2.44-4.43-4.3-1.07-1.86-1.61-4.04-1.61-6.54s.54-4.64,1.63-6.51c1.09-1.88,2.58-3.32,4.47-4.32,1.89-1,4.01-1.5,6.36-1.5s4.47.5,6.36,1.5c1.89,1,3.38,2.44,4.47,4.32,1.09,1.88,1.63,4.05,1.63,6.51s-.55,4.64-1.66,6.51c-1.1,1.88-2.61,3.32-4.51,4.32-1.91,1-4.04,1.51-6.39,1.51s-4.47-.5-6.34-1.51ZM195.54,61.72c.99-1.03,1.48-2.51,1.48-4.43s-.48-3.4-1.44-4.43c-.96-1.03-2.14-1.55-3.55-1.55s-2.62.51-3.57,1.53-1.42,2.5-1.42,4.45.47,3.4,1.4,4.43c.93,1.03,2.1,1.55,3.5,1.55s2.6-.52,3.59-1.55Z"/>
      <path class="cls-4" d="M206.63,50.76c.93-1.86,2.2-3.3,3.81-4.3,1.61-1,3.4-1.5,5.38-1.5,1.69,0,3.17.34,4.45,1.03,1.28.69,2.26,1.59,2.95,2.71v-3.4h7.35v23.99h-7.35v-3.4c-.72,1.12-1.71,2.02-2.99,2.71-1.28.69-2.76,1.03-4.45,1.03-1.95,0-3.73-.51-5.33-1.53-1.61-1.02-2.87-2.46-3.81-4.34-.93-1.88-1.4-4.05-1.4-6.51s.47-4.63,1.4-6.49ZM221.68,52.95c-1.02-1.06-2.26-1.59-3.72-1.59s-2.7.52-3.72,1.57c-1.02,1.05-1.53,2.49-1.53,4.32s.51,3.29,1.53,4.37c1.02,1.07,2.26,1.61,3.72,1.61s2.7-.53,3.72-1.59,1.53-2.51,1.53-4.34-.51-3.28-1.53-4.34Z"/>
      <path class="cls-4" d="M241.53,37.47v31.82h-7.35v-31.82h7.35Z"/>
      <path class="cls-4" d="M245.07,50.76c.93-1.86,2.2-3.3,3.81-4.3,1.61-1,3.4-1.5,5.38-1.5,1.69,0,3.17.34,4.45,1.03,1.28.69,2.26,1.59,2.95,2.71v-3.4h7.35v23.99h-7.35v-3.4c-.72,1.12-1.71,2.02-2.99,2.71-1.28.69-2.76,1.03-4.45,1.03-1.95,0-3.73-.51-5.33-1.53-1.61-1.02-2.87-2.46-3.81-4.34-.93-1.88-1.4-4.05-1.4-6.51s.47-4.63,1.4-6.49ZM260.12,52.95c-1.02-1.06-2.26-1.59-3.72-1.59s-2.7.52-3.72,1.57c-1.02,1.05-1.53,2.49-1.53,4.32s.51,3.29,1.53,4.37c1.02,1.07,2.26,1.61,3.72,1.61s2.7-.53,3.72-1.59,1.53-2.51,1.53-4.34-.51-3.28-1.53-4.34Z"/>
    </g>
    <g>
      <path class="cls-4" d="M171.24,83.75c2.39,1.22,4.23,2.96,5.5,5.22,1.27,2.26,1.91,4.93,1.91,8s-.64,5.73-1.91,7.98c-1.28,2.25-3.11,3.97-5.5,5.16-2.39,1.19-5.22,1.79-8.49,1.79h-9.33v-29.97h9.33c3.27,0,6.1.61,8.49,1.83ZM171.61,105.59c2.04-2.05,3.05-4.92,3.05-8.62s-1.03-6.64-3.07-8.73c-2.05-2.09-5-3.14-8.84-3.14h-5.42v23.56h5.42c3.87,0,6.82-1.02,8.86-3.07Z"/>
      <path class="cls-4" d="M182.1,93.68c.97-1.82,2.31-3.23,4.02-4.24,1.71-1,3.6-1.5,5.7-1.5s3.86.44,5.38,1.33c1.52.89,2.65,2.01,3.4,3.35v-4.3h3.96v23.56h-3.96v-4.39c-.77,1.38-1.93,2.52-3.46,3.42-1.53.9-3.32,1.35-5.35,1.35s-3.98-.52-5.68-1.55c-1.69-1.03-3.02-2.48-4-4.34-.98-1.86-1.46-3.98-1.46-6.36s.49-4.52,1.46-6.34ZM199.52,95.42c-.72-1.32-1.68-2.33-2.9-3.03-1.22-.7-2.56-1.05-4.02-1.05s-2.8.34-4,1.03c-1.2.69-2.17,1.69-2.88,3.01-.72,1.32-1.07,2.87-1.07,4.64s.36,3.38,1.07,4.71c.72,1.33,1.68,2.35,2.88,3.05,1.2.7,2.54,1.05,4,1.05s2.8-.35,4.02-1.05c1.22-.7,2.19-1.72,2.9-3.05.72-1.33,1.07-2.89,1.07-4.67s-.36-3.33-1.07-4.64Z"/>
      <path class="cls-4" d="M214.22,91.55v13.89c0,1.15.24,1.96.73,2.43.49.47,1.33.71,2.54.71h2.88v3.31h-3.53c-2.18,0-3.81-.5-4.9-1.5-1.09-1-1.63-2.65-1.63-4.95v-13.89h-3.05v-3.23h3.05v-5.93h3.91v5.93h6.15v3.23h-6.15Z"/>
      <path class="cls-4" d="M223.38,93.68c.97-1.82,2.31-3.23,4.02-4.24,1.71-1,3.6-1.5,5.7-1.5s3.86.44,5.38,1.33,2.65,2.01,3.4,3.35v-4.3h3.96v23.56h-3.96v-4.39c-.77,1.38-1.93,2.52-3.46,3.42s-3.32,1.35-5.35,1.35-3.98-.52-5.68-1.55-3.02-2.48-4-4.34-1.46-3.98-1.46-6.36.49-4.52,1.46-6.34ZM240.8,95.42c-.72-1.32-1.68-2.33-2.9-3.03-1.22-.7-2.56-1.05-4.02-1.05s-2.79.34-4,1.03c-1.2.69-2.17,1.69-2.88,3.01-.72,1.32-1.08,2.87-1.08,4.64s.36,3.38,1.08,4.71c.72,1.33,1.68,2.35,2.88,3.05s2.54,1.05,4,1.05,2.8-.35,4.02-1.05c1.22-.7,2.19-1.72,2.9-3.05s1.08-2.89,1.08-4.67-.36-3.33-1.08-4.64Z"/>
      <path class="cls-4" d="M264.4,85.1v10.02h10.92v3.23h-10.92v10.32h12.21v3.23h-16.12v-30.01h16.12v3.23h-12.21Z"/>
      <path class="cls-4" d="M293.13,111.89l-5.59-8.77-5.38,8.77h-4.08l7.61-11.7-7.61-11.87h4.43l5.59,8.73,5.33-8.73h4.08l-7.57,11.65,7.61,11.91h-4.43Z"/>
      <path class="cls-4" d="M307.08,89.29c1.53-.9,3.32-1.35,5.35-1.35s3.99.5,5.7,1.5c1.71,1,3.05,2.42,4.02,4.24.97,1.82,1.46,3.93,1.46,6.34s-.49,4.5-1.46,6.36-2.32,3.31-4.02,4.34-3.61,1.55-5.7,1.55-3.78-.45-5.31-1.35-2.7-2.03-3.5-3.38v15.52h-3.91v-34.74h3.91v4.34c.77-1.35,1.93-2.47,3.46-3.38ZM318.54,95.38c-.72-1.32-1.68-2.32-2.9-3.01-1.22-.69-2.56-1.03-4.02-1.03s-2.76.35-3.98,1.05c-1.22.7-2.19,1.72-2.92,3.05-.73,1.33-1.1,2.87-1.1,4.62s.37,3.33,1.1,4.67c.73,1.33,1.71,2.35,2.92,3.05,1.22.7,2.54,1.05,3.98,1.05s2.8-.35,4.02-1.05,2.19-1.72,2.9-3.05,1.08-2.9,1.08-4.71-.36-3.33-1.08-4.64Z"/>
      <path class="cls-4" d="M330.97,80.07v31.82h-3.91v-31.82h3.91Z"/>
      <path class="cls-4" d="M340.19,110.77c-1.79-1-3.2-2.43-4.21-4.28-1.02-1.85-1.53-3.99-1.53-6.43s.52-4.54,1.57-6.39c1.05-1.85,2.47-3.27,4.28-4.26,1.81-.99,3.83-1.48,6.06-1.48s4.26.49,6.06,1.48c1.81.99,3.23,2.4,4.28,4.24,1.05,1.83,1.57,3.97,1.57,6.41s-.54,4.58-1.61,6.43c-1.08,1.85-2.53,3.28-4.36,4.28-1.83,1-3.87,1.5-6.11,1.5s-4.21-.5-6-1.5ZM350.14,107.85c1.23-.66,2.23-1.65,2.99-2.97s1.14-2.92,1.14-4.82-.37-3.5-1.12-4.82c-.75-1.32-1.72-2.3-2.92-2.95-1.2-.64-2.51-.97-3.91-.97s-2.75.32-3.93.97c-1.19.65-2.14,1.63-2.86,2.95-.72,1.32-1.08,2.92-1.08,4.82s.35,3.54,1.05,4.86c.7,1.32,1.64,2.3,2.82,2.95,1.18.64,2.47.97,3.87.97s2.72-.33,3.96-.99Z"/>
      <path class="cls-4" d="M368.57,89.02c1.27-.75,2.83-1.12,4.67-1.12v4.04h-1.03c-4.39,0-6.58,2.38-6.58,7.14v12.81h-3.91v-23.56h3.91v3.83c.69-1.35,1.67-2.39,2.95-3.14Z"/>
      <path class="cls-4" d="M397.4,101.57h-18.83c.14,2.32.94,4.14,2.39,5.44,1.45,1.3,3.2,1.96,5.27,1.96,1.69,0,3.1-.39,4.24-1.18,1.13-.79,1.93-1.84,2.39-3.16h4.21c-.63,2.27-1.89,4.11-3.78,5.53-1.89,1.42-4.24,2.13-7.05,2.13-2.24,0-4.24-.5-6-1.5-1.76-1-3.15-2.43-4.15-4.28-1-1.85-1.5-3.99-1.5-6.43s.49-4.57,1.46-6.41c.97-1.83,2.34-3.25,4.11-4.24,1.76-.99,3.79-1.48,6.08-1.48s4.21.49,5.93,1.46c1.72.97,3.05,2.32,3.98,4.02.93,1.71,1.4,3.63,1.4,5.78,0,.75-.04,1.53-.13,2.37ZM392.5,94.54c-.66-1.08-1.56-1.89-2.69-2.45-1.13-.56-2.39-.84-3.76-.84-1.98,0-3.66.63-5.05,1.89s-2.19,3.01-2.39,5.25h14.88c0-1.49-.33-2.77-.99-3.85Z"/>
      <path class="cls-4" d="M407.83,89.02c1.27-.75,2.83-1.12,4.67-1.12v4.04h-1.03c-4.39,0-6.58,2.38-6.58,7.14v12.81h-3.91v-23.56h3.91v3.83c.69-1.35,1.67-2.39,2.95-3.14Z"/>
    </g>
  </g>
</svg>